<?xml version="1.0" encoding="UTF-8" standalone="no"?>
<!-- Created with Inkscape (http://www.inkscape.org/) -->

<svg
   xmlns:dc="http://purl.org/dc/elements/1.1/"
   xmlns:cc="http://creativecommons.org/ns#"
   xmlns:rdf="http://www.w3.org/1999/02/22-rdf-syntax-ns#"
   xmlns:svg="http://www.w3.org/2000/svg"
   xmlns="http://www.w3.org/2000/svg"
   xmlns:sodipodi="http://sodipodi.sourceforge.net/DTD/sodipodi-0.dtd"
   xmlns:inkscape="http://www.inkscape.org/namespaces/inkscape"
   width="60"
   height="60"
   viewBox="0 0 15.874999 15.875001"
   version="1.1"
   id="svg8"
   inkscape:version="0.92.4 (5da689c313, 2019-01-14)"
   sodipodi:docname="bispo.svg">
  <defs
     id="defs2">
    <clipPath
       clipPathUnits="userSpaceOnUse"
       id="clipPath3817">
      <g
         inkscape:label="Clip"
         id="use3819">
        <ellipse
           clip-path="none"
           style="stroke:#000000;stroke-width:0.24089199"
           ry="18.648291"
           rx="18.581635"
           cy="222.49222"
           cx="52.916668"
           id="ellipse3849" />
        <rect
           clip-path="none"
           transform="rotate(31.01136,-1.5841966e-6,-1.9206241e-6)"
           ry="0"
           y="160.25143"
           x="136.02579"
           height="3.2997301"
           width="19.036907"
           id="rect3851"
           style="fill:#ff0000;stroke:#000000;stroke-width:0.12563717" />
      </g>
    </clipPath>
    <clipPath
       clipPathUnits="userSpaceOnUse"
       id="clipPath4757">
      <rect
         style="fill:#ff0000;stroke:#ffff00"
         id="rect4759"
         width="176.24287"
         height="167.34172"
         x="68.538902"
         y="-2.4494238" />
    </clipPath>
    <clipPath
       clipPathUnits="userSpaceOnUse"
       id="clipPath4784">
      <rect
         style="fill:#ff0000;stroke:#ffff00;stroke-width:0.81036377"
         id="rect4786"
         width="218.79823"
         height="68.302094"
         x="25.185766"
         y="219.67793" />
    </clipPath>
    <clipPath
       clipPathUnits="userSpaceOnUse"
       id="clipPath4790">
      <rect
         style="fill:#ff0000;stroke:#ffff00;stroke-width:0.81817555"
         id="rect4792"
         width="180.58755"
         height="41.668041"
         x="41.512718"
         y="229.86934" />
    </clipPath>
  </defs>
  <sodipodi:namedview
     id="base"
     pagecolor="#ffffff"
     bordercolor="#666666"
     borderopacity="1.0"
     inkscape:pageopacity="0.0"
     inkscape:pageshadow="2"
     inkscape:zoom="2.8"
     inkscape:cx="87.887006"
     inkscape:cy="59.713903"
     inkscape:document-units="mm"
     inkscape:current-layer="layer1"
     showgrid="false"
     units="px"
     inkscape:window-width="1366"
     inkscape:window-height="704"
     inkscape:window-x="0"
     inkscape:window-y="27"
     inkscape:window-maximized="1" />
  <metadata
     id="metadata5">
    <rdf:RDF>
      <cc:Work
         rdf:about="">
        <dc:format>image/svg+xml</dc:format>
        <dc:type
           rdf:resource="http://purl.org/dc/dcmitype/StillImage" />
        <dc:title></dc:title>
      </cc:Work>
    </rdf:RDF>
  </metadata>
  <g
     inkscape:groupmode="layer"
     id="layer3"
     inkscape:label="Camada 2"
     transform="translate(0,-89.958333)" />
  <g
     inkscape:label="Camada 1"
     inkscape:groupmode="layer"
     id="layer1"
     transform="translate(0,-281.12498)">
    <g
       id="g4552"
       transform="matrix(0.26458333,0,0,0.26458333,-140.06182,207.45211)" />
    <g
       id="g4554"
       transform="matrix(0.26458333,0,0,0.26458333,-140.06182,207.45211)" />
    <g
       id="g4556"
       transform="matrix(0.26458333,0,0,0.26458333,-140.06182,207.45211)" />
    <g
       id="g4558"
       transform="matrix(0.26458333,0,0,0.26458333,-140.06182,207.45211)" />
    <g
       id="g4560"
       transform="matrix(0.26458333,0,0,0.26458333,-140.06182,207.45211)" />
    <g
       id="g4562"
       transform="matrix(0.26458333,0,0,0.26458333,-140.06182,207.45211)" />
    <g
       id="g4564"
       transform="matrix(0.26458333,0,0,0.26458333,-140.06182,207.45211)" />
    <g
       id="g4566"
       transform="matrix(0.26458333,0,0,0.26458333,-140.06182,207.45211)" />
    <g
       id="g4568"
       transform="matrix(0.26458333,0,0,0.26458333,-140.06182,207.45211)" />
    <g
       id="g4570"
       transform="matrix(0.26458333,0,0,0.26458333,-140.06182,207.45211)" />
    <g
       id="g4572"
       transform="matrix(0.26458333,0,0,0.26458333,-140.06182,207.45211)" />
    <g
       id="g4574"
       transform="matrix(0.26458333,0,0,0.26458333,-140.06182,207.45211)" />
    <g
       id="g4576"
       transform="matrix(0.26458333,0,0,0.26458333,-140.06182,207.45211)" />
    <g
       id="g4578"
       transform="matrix(0.26458333,0,0,0.26458333,-140.06182,207.45211)" />
    <g
       id="g4580"
       transform="matrix(0.26458333,0,0,0.26458333,-140.06182,207.45211)" />
    <g
       id="g78"
       style="fill:#ffffff;stroke:#ffffff"
       transform="matrix(0.14987689,0,0,0.15023048,0.00651375,252.34527)">
      <g
         style="fill:#ffffff;stroke:#ffffff"
         clip-path="url(#clipPath4790)"
         transform="matrix(0.32649943,0,0,0.32649943,9.881921,204.86454)"
         id="g4486">
        <g
           style="fill:#ffffff;stroke:#ffffff"
           id="g4428">
          <path
             style="fill:#ffffff;stroke:#ffffff"
             inkscape:connector-curvature="0"
             d="m 220.328,239 c 0,-4.142 -3.358,-7.5 -7.5,-7.5 h -163 c -4.142,0 -7.5,3.358 -7.5,7.5 v 16 c 0,4.142 3.358,7.5 7.5,7.5 h 163 c 4.142,0 7.5,-3.358 7.5,-7.5 z"
             id="path4422" />
          <path
             style="fill:#ffffff;stroke:#ffffff"
             inkscape:connector-curvature="0"
             d="m 107.661,44.5 h 15.667 v 95 c 0,4.143 3.357,7.5 7.5,7.5 4.143,0 7.5,-3.357 7.5,-7.5 v -95 h 17.333 c 4.143,0 7.5,-3.357 7.5,-7.5 0,-4.143 -3.357,-7.5 -7.5,-7.5 h -17.333 v -22 c 0,-4.143 -3.357,-7.5 -7.5,-7.5 -4.143,0 -7.5,3.357 -7.5,7.5 v 22 h -15.667 c -4.143,0 -7.5,3.357 -7.5,7.5 0,4.143 3.358,7.5 7.5,7.5 z"
             id="path4424" />
          <path
             style="fill:#ffffff;stroke:#ffffff"
             inkscape:connector-curvature="0"
             d="m 172.041,65.5 c -5.595,0 -11.259,0.652 -16.917,1.938 -3.414,0.776 -5.795,3.812 -5.795,7.313 V 147.5 c 0,9.925 -8.075,18 -18,18 -9.925,0 -18,-8.075 -18,-18 V 74.752 c 0,-3.502 -2.464,-6.537 -5.878,-7.313 -5.658,-1.286 -11.385,-1.938 -16.981,-1.938 -40.584,0 -73.612,32.972 -73.612,73.5 0,20.856 8.839,57.37 25.442,71.681 1.361,1.174 3.093,1.819 4.891,1.819 h 168.108 c 1.797,0 3.535,-0.646 4.896,-1.819 16.604,-14.311 25.447,-50.824 25.447,-71.681 C 245.643,98.472 212.625,65.5 172.041,65.5 Z"
             id="path4426" />
        </g>
        <g
           style="fill:#ffffff;stroke:#ffffff"
           id="g4430" />
        <g
           style="fill:#ffffff;stroke:#ffffff"
           id="g4432" />
        <g
           style="fill:#ffffff;stroke:#ffffff"
           id="g4434" />
        <g
           style="fill:#ffffff;stroke:#ffffff"
           id="g4436" />
        <g
           style="fill:#ffffff;stroke:#ffffff"
           id="g4438" />
        <g
           style="fill:#ffffff;stroke:#ffffff"
           id="g4440" />
        <g
           style="fill:#ffffff;stroke:#ffffff"
           id="g4442" />
        <g
           style="fill:#ffffff;stroke:#ffffff"
           id="g4444" />
        <g
           style="fill:#ffffff;stroke:#ffffff"
           id="g4446" />
        <g
           style="fill:#ffffff;stroke:#ffffff"
           id="g4448" />
        <g
           style="fill:#ffffff;stroke:#ffffff"
           id="g4450" />
        <g
           style="fill:#ffffff;stroke:#ffffff"
           id="g4452" />
        <g
           style="fill:#ffffff;stroke:#ffffff"
           id="g4454" />
        <g
           style="fill:#ffffff;stroke:#ffffff"
           id="g4456" />
        <g
           style="fill:#ffffff;stroke:#ffffff"
           id="g4458" />
      </g>
      <path
         style="fill:#ffffff;stroke:#ffffff"
         clip-path="url(#clipPath4757)"
         d="m 209.39063,255.08 h -3.41 c 2.214,-3.337 8.32,-14.536 -0.712,-25.6 -8.9,-10.905 -25.137,-39.546 -24.448,-64.4 h 3.57 c 4.418,0 7.667,-3.582 7.667,-8 v -1 c 0,-4.418 -3.249,-8 -7.667,-8 h -4.333 v -4.285 c 13,-8.971 20.511,-23.502 20.511,-39.914 0,-10.332005 -7.011,-26.11 -15.819,-41.721 l -18.553,18.595 c -3.111,3.111 -8.182,3.111 -11.294,0.001 l -0.921,-0.933 c -3.111,-3.11 -3.106,-8.202 0.005,-11.313 l 21.676,-21.674 c -4.444,-7.069 -8.869,-13.678 -12.703,-19.224 2.881,-2.93 4.663,-6.944 4.663,-11.379 C 167.62363,7.2680005 160.35863,-1.6974017e-8 151.39163,-1.6974017e-8 142.42463,-1.6974017e-8 135.15763,7.2680005 135.15763,16.233 c 0,4.434 1.781,8.448 4.662,11.379 -14.585,21.101 -37.94,57.587 -37.94,76.269 0,16.853 8.178,31.724 21.178,40.625 v 3.574 h -4.667 c -4.418,0 -8.333,3.582 -8.333,8 v 1 c 0,4.418 3.915,8 8.333,8 h 3.571 c 0.689,24.855 -15.547,53.495 -24.448003,64.4 -9.031,11.064 -2.926,22.263 -0.712,25.6 h -3.411 c -4.418,0 -8.333,3.582 -8.333,8 v 9 c 0,4.078 3,7.438 7,7.931 V 297.08 H 210.05763 v -17.069 c 4,-0.493 7,-3.853 7,-7.931 v -9 c 0,-4.418 -3.249,-8 -7.667,-8 z"
         id="path4686"
         inkscape:connector-curvature="0"
         transform="matrix(0.49839396,0,0,0.49839396,-22.369543,196.03789)" />
      <rect
         ry="0.11309712"
         y="278.0867"
         x="35.103817"
         height="0.22619423"
         width="35.882645"
         id="rect54"
         style="fill:#ffffff;stroke:#ffffff;stroke-width:0.17908953" />
    </g>
  </g>
</svg>
