<?xml version="1.0" encoding="UTF-8" standalone="no"?>
<!-- Created with Inkscape (http://www.inkscape.org/) -->

<svg
   xmlns:dc="http://purl.org/dc/elements/1.1/"
   xmlns:cc="http://creativecommons.org/ns#"
   xmlns:rdf="http://www.w3.org/1999/02/22-rdf-syntax-ns#"
   xmlns:svg="http://www.w3.org/2000/svg"
   xmlns="http://www.w3.org/2000/svg"
   xmlns:sodipodi="http://sodipodi.sourceforge.net/DTD/sodipodi-0.dtd"
   xmlns:inkscape="http://www.inkscape.org/namespaces/inkscape"
   width="60"
   height="60"
   viewBox="0 0 15.874999 15.875001"
   version="1.1"
   id="svg8"
   inkscape:version="0.92.4 (5da689c313, 2019-01-14)"
   sodipodi:docname="rainha.svg">
  <defs
     id="defs2">
    <clipPath
       clipPathUnits="userSpaceOnUse"
       id="clipPath3817">
      <g
         inkscape:label="Clip"
         id="use3819">
        <ellipse
           clip-path="none"
           style="stroke:#000000;stroke-width:0.24089199"
           ry="18.648291"
           rx="18.581635"
           cy="222.49222"
           cx="52.916668"
           id="ellipse3849" />
        <rect
           clip-path="none"
           transform="rotate(31.01136,-1.5841966e-6,-1.9206241e-6)"
           ry="0"
           y="160.25143"
           x="136.02579"
           height="3.2997301"
           width="19.036907"
           id="rect3851"
           style="fill:#ff0000;stroke:#000000;stroke-width:0.12563717" />
      </g>
    </clipPath>
    <clipPath
       clipPathUnits="userSpaceOnUse"
       id="clipPath4757">
      <rect
         style="fill:#ff0000;stroke:#ffff00"
         id="rect4759"
         width="176.24287"
         height="167.34172"
         x="68.538902"
         y="-2.4494238" />
    </clipPath>
    <clipPath
       clipPathUnits="userSpaceOnUse"
       id="clipPath4784">
      <rect
         style="fill:#ff0000;stroke:#ffff00;stroke-width:0.81036377"
         id="rect4786"
         width="218.79823"
         height="68.302094"
         x="25.185766"
         y="219.67793" />
    </clipPath>
    <clipPath
       clipPathUnits="userSpaceOnUse"
       id="clipPath4790">
      <rect
         style="fill:#ff0000;stroke:#ffff00;stroke-width:0.81817555"
         id="rect4792"
         width="180.58755"
         height="41.668041"
         x="41.512718"
         y="229.86934" />
    </clipPath>
    <clipPath
       clipPathUnits="userSpaceOnUse"
       id="clipPath5309">
      <rect
         style="fill:#ff0000;stroke:#ffff00;stroke-width:0.91658431"
         id="rect5311"
         width="62.374897"
         height="63.349396"
         x="100.24864"
         y="1.0753022" />
    </clipPath>
    <clipPath
       clipPathUnits="userSpaceOnUse"
       id="clipPath5123">
      <rect
         style="fill:#ff0000;stroke:#ffff00;stroke-width:0.87708074"
         id="rect5125"
         width="228.27544"
         height="149.47952"
         x="8.3410997"
         y="48.484455" />
    </clipPath>
    <clipPath
       clipPathUnits="userSpaceOnUse"
       id="clipPath213">
      <rect
         style="fill:#ff0000;stroke:#ffff00;stroke-width:0.99354911"
         id="rect215"
         width="259.48831"
         height="164.57376"
         x="1.1033314"
         y="23.940886" />
    </clipPath>
  </defs>
  <sodipodi:namedview
     id="base"
     pagecolor="#ffffff"
     bordercolor="#666666"
     borderopacity="1.0"
     inkscape:pageopacity="0.0"
     inkscape:pageshadow="2"
     inkscape:zoom="5.6"
     inkscape:cx="69.898513"
     inkscape:cy="37.581404"
     inkscape:document-units="mm"
     inkscape:current-layer="layer1"
     showgrid="false"
     units="px"
     inkscape:window-width="1366"
     inkscape:window-height="704"
     inkscape:window-x="0"
     inkscape:window-y="27"
     inkscape:window-maximized="1" />
  <metadata
     id="metadata5">
    <rdf:RDF>
      <cc:Work
         rdf:about="">
        <dc:format>image/svg+xml</dc:format>
        <dc:type
           rdf:resource="http://purl.org/dc/dcmitype/StillImage" />
        <dc:title></dc:title>
      </cc:Work>
    </rdf:RDF>
  </metadata>
  <g
     inkscape:groupmode="layer"
     id="layer3"
     inkscape:label="Camada 2"
     transform="translate(0,-89.958333)" />
  <g
     inkscape:label="Camada 1"
     inkscape:groupmode="layer"
     id="layer1"
     transform="translate(0,-281.12498)">
    <g
       id="g4552"
       transform="matrix(0.26458333,0,0,0.26458333,-140.06182,207.45211)" />
    <g
       id="g4554"
       transform="matrix(0.26458333,0,0,0.26458333,-140.06182,207.45211)" />
    <g
       id="g4556"
       transform="matrix(0.26458333,0,0,0.26458333,-140.06182,207.45211)" />
    <g
       id="g4558"
       transform="matrix(0.26458333,0,0,0.26458333,-140.06182,207.45211)" />
    <g
       id="g4560"
       transform="matrix(0.26458333,0,0,0.26458333,-140.06182,207.45211)" />
    <g
       id="g4562"
       transform="matrix(0.26458333,0,0,0.26458333,-140.06182,207.45211)" />
    <g
       id="g4564"
       transform="matrix(0.26458333,0,0,0.26458333,-140.06182,207.45211)" />
    <g
       id="g4566"
       transform="matrix(0.26458333,0,0,0.26458333,-140.06182,207.45211)" />
    <g
       id="g4568"
       transform="matrix(0.26458333,0,0,0.26458333,-140.06182,207.45211)" />
    <g
       id="g4570"
       transform="matrix(0.26458333,0,0,0.26458333,-140.06182,207.45211)" />
    <g
       id="g4572"
       transform="matrix(0.26458333,0,0,0.26458333,-140.06182,207.45211)" />
    <g
       id="g4574"
       transform="matrix(0.26458333,0,0,0.26458333,-140.06182,207.45211)" />
    <g
       id="g4576"
       transform="matrix(0.26458333,0,0,0.26458333,-140.06182,207.45211)" />
    <g
       id="g4578"
       transform="matrix(0.26458333,0,0,0.26458333,-140.06182,207.45211)" />
    <g
       id="g4580"
       transform="matrix(0.26458333,0,0,0.26458333,-140.06182,207.45211)" />
    <g
       id="g893"
       transform="matrix(0.14999999,0,0,0.15000028,0,252.44991)">
      <g
         style="fill:#ffffff;stroke:#ffffff"
         clip-path="url(#clipPath4790)"
         transform="matrix(0.42462951,0,0,0.32649943,-3.052261,204.86454)"
         id="g4486">
        <g
           style="fill:#ffffff;stroke:#ffffff"
           id="g4428">
          <path
             style="fill:#ffffff;stroke:#ffffff"
             inkscape:connector-curvature="0"
             d="m 220.328,239 c 0,-4.142 -3.358,-7.5 -7.5,-7.5 h -163 c -4.142,0 -7.5,3.358 -7.5,7.5 v 16 c 0,4.142 3.358,7.5 7.5,7.5 h 163 c 4.142,0 7.5,-3.358 7.5,-7.5 z"
             id="path4422" />
          <path
             style="fill:#ffffff;stroke:#ffffff"
             inkscape:connector-curvature="0"
             d="m 107.661,44.5 h 15.667 v 95 c 0,4.143 3.357,7.5 7.5,7.5 4.143,0 7.5,-3.357 7.5,-7.5 v -95 h 17.333 c 4.143,0 7.5,-3.357 7.5,-7.5 0,-4.143 -3.357,-7.5 -7.5,-7.5 h -17.333 v -22 c 0,-4.143 -3.357,-7.5 -7.5,-7.5 -4.143,0 -7.5,3.357 -7.5,7.5 v 22 h -15.667 c -4.143,0 -7.5,3.357 -7.5,7.5 0,4.143 3.358,7.5 7.5,7.5 z"
             id="path4424" />
          <path
             style="fill:#ffffff;stroke:#ffffff"
             inkscape:connector-curvature="0"
             d="m 172.041,65.5 c -5.595,0 -11.259,0.652 -16.917,1.938 -3.414,0.776 -5.795,3.812 -5.795,7.313 V 147.5 c 0,9.925 -8.075,18 -18,18 -9.925,0 -18,-8.075 -18,-18 V 74.752 c 0,-3.502 -2.464,-6.537 -5.878,-7.313 -5.658,-1.286 -11.385,-1.938 -16.981,-1.938 -40.584,0 -73.612,32.972 -73.612,73.5 0,20.856 8.839,57.37 25.442,71.681 1.361,1.174 3.093,1.819 4.891,1.819 h 168.108 c 1.797,0 3.535,-0.646 4.896,-1.819 16.604,-14.311 25.447,-50.824 25.447,-71.681 C 245.643,98.472 212.625,65.5 172.041,65.5 Z"
             id="path4426" />
        </g>
        <g
           style="fill:#ffffff;stroke:#ffffff"
           id="g4430" />
        <g
           style="fill:#ffffff;stroke:#ffffff"
           id="g4432" />
        <g
           style="fill:#ffffff;stroke:#ffffff"
           id="g4434" />
        <g
           style="fill:#ffffff;stroke:#ffffff"
           id="g4436" />
        <g
           style="fill:#ffffff;stroke:#ffffff"
           id="g4438" />
        <g
           style="fill:#ffffff;stroke:#ffffff"
           id="g4440" />
        <g
           style="fill:#ffffff;stroke:#ffffff"
           id="g4442" />
        <g
           style="fill:#ffffff;stroke:#ffffff"
           id="g4444" />
        <g
           style="fill:#ffffff;stroke:#ffffff"
           id="g4446" />
        <g
           style="fill:#ffffff;stroke:#ffffff"
           id="g4448" />
        <g
           style="fill:#ffffff;stroke:#ffffff"
           id="g4450" />
        <g
           style="fill:#ffffff;stroke:#ffffff"
           id="g4452" />
        <g
           style="fill:#ffffff;stroke:#ffffff"
           id="g4454" />
        <g
           style="fill:#ffffff;stroke:#ffffff"
           id="g4456" />
        <g
           style="fill:#ffffff;stroke:#ffffff"
           id="g4458" />
      </g>
      <g
         style="fill:#ffffff;stroke:#ffffff"
         transform="translate(0.23963658)"
         id="g258">
        <path
           style="fill:#ffffff;stroke:#ffffff"
           transform="matrix(0.39214771,0,0,0.4748227,1.6051242,189.17509)"
           inkscape:connector-curvature="0"
           d="m 211.735,230.103 c 0,4.142 -3.358,7.5 -7.5,7.5 h -148 c -4.142,0 -7.5,-3.358 -7.5,-7.5 v -16 c 0,-4.142 3.358,-7.5 7.5,-7.5 h 148 c 4.142,0 7.5,3.358 7.5,7.5 z m 49.96,-142.361 c 0,-8.188 -6.66,-14.848 -14.848,-14.848 -8.188,0 -14.847,6.66 -14.847,14.848 0,2.667 0.716,5.165 1.952,7.33 l -66.261,26.505 -25.44,-50.879 c 7.985,-4.083 13.468,-12.389 13.468,-21.956 0,-13.592 -11.059,-24.649 -24.65,-24.649 -13.591,0 -24.649,11.058 -24.649,24.649 0,9.567 5.482,17.872 13.467,21.956 L 94.448,121.577 27.83,94.93 c 1.185,-2.132 1.865,-4.581 1.865,-7.188 0,-8.188 -6.66,-14.848 -14.848,-14.848 C 6.659,72.894 0,79.554 0,87.742 c 0,6.016 3.602,11.197 8.758,13.527 l 33.355,82.641 c 1.145,2.837 3.896,4.693 6.955,4.693 h 165 c 3.087,0 5.858,-1.892 6.983,-4.766 l 32.435,-82.834 c 4.86,-2.442 8.209,-7.462 8.209,-13.261 z"
           id="path172"
           clip-path="url(#clipPath213)" />
        <ellipse
           style="fill:#ffffff;stroke:#ffffff;stroke-width:0.34330696"
           id="path238"
           cx="6.5872221"
           cy="230.51131"
           rx="5.7406793"
           ry="6.5755591" />
        <ellipse
           style="fill:#ffffff;stroke:#ffffff;stroke-width:0.34330696"
           id="path238-3"
           cx="98.766838"
           cy="230.58351"
           rx="5.7406793"
           ry="6.5755591" />
      </g>
    </g>
  </g>
</svg>
