<?xml version="1.0" encoding="UTF-8" standalone="no"?>
<!-- Created with Inkscape (http://www.inkscape.org/) -->

<svg
   xmlns:dc="http://purl.org/dc/elements/1.1/"
   xmlns:cc="http://creativecommons.org/ns#"
   xmlns:rdf="http://www.w3.org/1999/02/22-rdf-syntax-ns#"
   xmlns:svg="http://www.w3.org/2000/svg"
   xmlns="http://www.w3.org/2000/svg"
   xmlns:sodipodi="http://sodipodi.sourceforge.net/DTD/sodipodi-0.dtd"
   xmlns:inkscape="http://www.inkscape.org/namespaces/inkscape"
   width="60"
   height="60"
   viewBox="0 0 15.874999 15.875001"
   version="1.1"
   id="svg8"
   inkscape:version="0.92.4 (5da689c313, 2019-01-14)"
   sodipodi:docname="peaoEscuroC.svg">
  <defs
     id="defs2">
    <clipPath
       clipPathUnits="userSpaceOnUse"
       id="clipPath3817">
      <g
         inkscape:label="Clip"
         id="use3819">
        <ellipse
           clip-path="none"
           style="stroke:#000000;stroke-width:0.24089199"
           ry="18.648291"
           rx="18.581635"
           cy="222.49222"
           cx="52.916668"
           id="ellipse3849" />
        <rect
           clip-path="none"
           transform="rotate(31.01136,-1.5841966e-6,-1.9206241e-6)"
           ry="0"
           y="160.25143"
           x="136.02579"
           height="3.2997301"
           width="19.036907"
           id="rect3851"
           style="fill:#ff0000;stroke:#000000;stroke-width:0.12563717" />
      </g>
    </clipPath>
    <clipPath
       clipPathUnits="userSpaceOnUse"
       id="clipPath4757">
      <rect
         style="fill:#ff0000;stroke:#ffff00"
         id="rect4759"
         width="176.24287"
         height="167.34172"
         x="68.538902"
         y="-2.4494238" />
    </clipPath>
    <clipPath
       clipPathUnits="userSpaceOnUse"
       id="clipPath4784">
      <rect
         style="fill:#ff0000;stroke:#ffff00;stroke-width:0.81036377"
         id="rect4786"
         width="218.79823"
         height="68.302094"
         x="25.185766"
         y="219.67793" />
    </clipPath>
    <clipPath
       clipPathUnits="userSpaceOnUse"
       id="clipPath4790">
      <rect
         style="fill:#ff0000;stroke:#ffff00;stroke-width:0.81817555"
         id="rect4792"
         width="180.58755"
         height="41.668041"
         x="41.512718"
         y="229.86934" />
    </clipPath>
    <clipPath
       clipPathUnits="userSpaceOnUse"
       id="clipPath5309">
      <rect
         style="fill:#ff0000;stroke:#ffff00;stroke-width:0.91658431"
         id="rect5311"
         width="62.374897"
         height="63.349396"
         x="100.24864"
         y="1.0753022" />
    </clipPath>
    <clipPath
       clipPathUnits="userSpaceOnUse"
       id="clipPath5123">
      <rect
         style="fill:#ff0000;stroke:#ffff00;stroke-width:0.87708074"
         id="rect5125"
         width="228.27544"
         height="149.47952"
         x="8.3410997"
         y="48.484455" />
    </clipPath>
    <clipPath
       clipPathUnits="userSpaceOnUse"
       id="clipPath213">
      <rect
         style="fill:#ff0000;stroke:#ffff00;stroke-width:0.99354911"
         id="rect215"
         width="259.48831"
         height="164.57376"
         x="1.1033314"
         y="23.940886" />
    </clipPath>
  </defs>
  <sodipodi:namedview
     id="base"
     pagecolor="#ffffff"
     bordercolor="#666666"
     borderopacity="1.0"
     inkscape:pageopacity="0.0"
     inkscape:pageshadow="2"
     inkscape:zoom="3.959798"
     inkscape:cx="49.459647"
     inkscape:cy="54.567737"
     inkscape:document-units="mm"
     inkscape:current-layer="layer3"
     showgrid="false"
     units="px"
     inkscape:window-width="1366"
     inkscape:window-height="704"
     inkscape:window-x="0"
     inkscape:window-y="27"
     inkscape:window-maximized="1" />
  <metadata
     id="metadata5">
    <rdf:RDF>
      <cc:Work
         rdf:about="">
        <dc:format>image/svg+xml</dc:format>
        <dc:type
           rdf:resource="http://purl.org/dc/dcmitype/StillImage" />
        <dc:title></dc:title>
      </cc:Work>
    </rdf:RDF>
  </metadata>
  <g
     inkscape:groupmode="layer"
     id="layer3"
     inkscape:label="Camada 2"
     transform="translate(0,-89.958333)">
    <rect
       style="fill:#9b6b4b;fill-opacity:1;stroke:#0000ff;stroke-width:0.26088822;stroke-miterlimit:4;stroke-dasharray:none;stroke-opacity:1"
       id="rect34"
       width="15.614112"
       height="15.614112"
       x="0.13044411"
       y="90.088768"
       ry="0" />
  </g>
  <g
     inkscape:label="Camada 1"
     inkscape:groupmode="layer"
     id="layer1"
     transform="translate(0,-281.12498)">
    <g
       id="g4552"
       transform="matrix(0.26458333,0,0,0.26458333,-140.06182,207.45211)" />
    <g
       id="g4554"
       transform="matrix(0.26458333,0,0,0.26458333,-140.06182,207.45211)" />
    <g
       id="g4556"
       transform="matrix(0.26458333,0,0,0.26458333,-140.06182,207.45211)" />
    <g
       id="g4558"
       transform="matrix(0.26458333,0,0,0.26458333,-140.06182,207.45211)" />
    <g
       id="g4560"
       transform="matrix(0.26458333,0,0,0.26458333,-140.06182,207.45211)" />
    <g
       id="g4562"
       transform="matrix(0.26458333,0,0,0.26458333,-140.06182,207.45211)" />
    <g
       id="g4564"
       transform="matrix(0.26458333,0,0,0.26458333,-140.06182,207.45211)" />
    <g
       id="g4566"
       transform="matrix(0.26458333,0,0,0.26458333,-140.06182,207.45211)" />
    <g
       id="g4568"
       transform="matrix(0.26458333,0,0,0.26458333,-140.06182,207.45211)" />
    <g
       id="g4570"
       transform="matrix(0.26458333,0,0,0.26458333,-140.06182,207.45211)" />
    <g
       id="g4572"
       transform="matrix(0.26458333,0,0,0.26458333,-140.06182,207.45211)" />
    <g
       id="g4574"
       transform="matrix(0.26458333,0,0,0.26458333,-140.06182,207.45211)" />
    <g
       id="g4576"
       transform="matrix(0.26458333,0,0,0.26458333,-140.06182,207.45211)" />
    <g
       id="g4578"
       transform="matrix(0.26458333,0,0,0.26458333,-140.06182,207.45211)" />
    <g
       id="g4580"
       transform="matrix(0.26458333,0,0,0.26458333,-140.06182,207.45211)" />
    <g
       id="g894"
       transform="matrix(0.14999999,0,0,0.15,0,252.44998)">
      <g
         style="fill:#ffffff;stroke:#ffffff"
         clip-path="url(#clipPath4790)"
         transform="matrix(0.37973221,0,0,0.32649943,2.8654948,204.86454)"
         id="g4486">
        <g
           style="fill:#ffffff;stroke:#ffffff"
           id="g4428">
          <path
             style="fill:#ffffff;stroke:#ffffff"
             inkscape:connector-curvature="0"
             d="m 220.328,239 c 0,-4.142 -3.358,-7.5 -7.5,-7.5 h -163 c -4.142,0 -7.5,3.358 -7.5,7.5 v 16 c 0,4.142 3.358,7.5 7.5,7.5 h 163 c 4.142,0 7.5,-3.358 7.5,-7.5 z"
             id="path4422" />
          <path
             style="fill:#ffffff;stroke:#ffffff"
             inkscape:connector-curvature="0"
             d="m 107.661,44.5 h 15.667 v 95 c 0,4.143 3.357,7.5 7.5,7.5 4.143,0 7.5,-3.357 7.5,-7.5 v -95 h 17.333 c 4.143,0 7.5,-3.357 7.5,-7.5 0,-4.143 -3.357,-7.5 -7.5,-7.5 h -17.333 v -22 c 0,-4.143 -3.357,-7.5 -7.5,-7.5 -4.143,0 -7.5,3.357 -7.5,7.5 v 22 h -15.667 c -4.143,0 -7.5,3.357 -7.5,7.5 0,4.143 3.358,7.5 7.5,7.5 z"
             id="path4424" />
          <path
             style="fill:#ffffff;stroke:#ffffff"
             inkscape:connector-curvature="0"
             d="m 172.041,65.5 c -5.595,0 -11.259,0.652 -16.917,1.938 -3.414,0.776 -5.795,3.812 -5.795,7.313 V 147.5 c 0,9.925 -8.075,18 -18,18 -9.925,0 -18,-8.075 -18,-18 V 74.752 c 0,-3.502 -2.464,-6.537 -5.878,-7.313 -5.658,-1.286 -11.385,-1.938 -16.981,-1.938 -40.584,0 -73.612,32.972 -73.612,73.5 0,20.856 8.839,57.37 25.442,71.681 1.361,1.174 3.093,1.819 4.891,1.819 h 168.108 c 1.797,0 3.535,-0.646 4.896,-1.819 16.604,-14.311 25.447,-50.824 25.447,-71.681 C 245.643,98.472 212.625,65.5 172.041,65.5 Z"
             id="path4426" />
        </g>
        <g
           style="fill:#ffffff;stroke:#ffffff"
           id="g4430" />
        <g
           style="fill:#ffffff;stroke:#ffffff"
           id="g4432" />
        <g
           style="fill:#ffffff;stroke:#ffffff"
           id="g4434" />
        <g
           style="fill:#ffffff;stroke:#ffffff"
           id="g4436" />
        <g
           style="fill:#ffffff;stroke:#ffffff"
           id="g4438" />
        <g
           style="fill:#ffffff;stroke:#ffffff"
           id="g4440" />
        <g
           style="fill:#ffffff;stroke:#ffffff"
           id="g4442" />
        <g
           style="fill:#ffffff;stroke:#ffffff"
           id="g4444" />
        <g
           style="fill:#ffffff;stroke:#ffffff"
           id="g4446" />
        <g
           style="fill:#ffffff;stroke:#ffffff"
           id="g4448" />
        <g
           style="fill:#ffffff;stroke:#ffffff"
           id="g4450" />
        <g
           style="fill:#ffffff;stroke:#ffffff"
           id="g4452" />
        <g
           style="fill:#ffffff;stroke:#ffffff"
           id="g4454" />
        <g
           style="fill:#ffffff;stroke:#ffffff"
           id="g4456" />
        <g
           style="fill:#ffffff;stroke:#ffffff"
           id="g4458" />
      </g>
      <g
         style="fill:#ffffff;stroke:#ffffff"
         transform="matrix(0.90500773,0,0,0.90500773,6.4725637,31.123221)"
         id="g395">
        <ellipse
           id="path10"
           cx="52.078911"
           cy="216.21918"
           rx="21.981455"
           ry="22.060307"
           style="fill:#ffffff;stroke:#ffffff;stroke-width:0.28496721" />
        <path
           style="fill:#ffffff;stroke:#ffffff;stroke-width:0.37000138"
           d="m 19.148173,271.20414 c 0.332127,-0.88002 18.621577,-31.91519 18.808063,-31.91519 0.09354,0 1.005998,0.4307 2.02771,0.95714 3.296953,1.69875 7.015178,2.48641 11.877949,2.5162 4.709808,0.0288 7.051435,-0.42255 11.428916,-2.20322 1.310364,-0.53303 2.424444,-0.91094 2.475729,-0.83982 0.07518,0.10421 17.194837,30.76568 17.726997,31.74914 0.08326,0.15384 -14.406565,0.27982 -32.199646,0.27982 -28.194122,0 -32.32466,-0.07 -32.145718,-0.54407 z"
           id="path3762"
           inkscape:connector-curvature="0" />
      </g>
    </g>
  </g>
</svg>
