<?xml version="1.0" encoding="UTF-8" standalone="no"?>
<!-- Created with Inkscape (http://www.inkscape.org/) -->

<svg
   xmlns:dc="http://purl.org/dc/elements/1.1/"
   xmlns:cc="http://creativecommons.org/ns#"
   xmlns:rdf="http://www.w3.org/1999/02/22-rdf-syntax-ns#"
   xmlns:svg="http://www.w3.org/2000/svg"
   xmlns="http://www.w3.org/2000/svg"
   xmlns:sodipodi="http://sodipodi.sourceforge.net/DTD/sodipodi-0.dtd"
   xmlns:inkscape="http://www.inkscape.org/namespaces/inkscape"
   width="60"
   height="60"
   viewBox="0 0 15.874999 15.875001"
   version="1.1"
   id="svg8"
   inkscape:version="0.92.4 (5da689c313, 2019-01-14)"
   sodipodi:docname="torreEscuro.svg">
  <defs
     id="defs2">
    <clipPath
       clipPathUnits="userSpaceOnUse"
       id="clipPath3817">
      <g
         inkscape:label="Clip"
         id="use3819">
        <ellipse
           clip-path="none"
           style="stroke:#000000;stroke-width:0.24089199"
           ry="18.648291"
           rx="18.581635"
           cy="222.49222"
           cx="52.916668"
           id="ellipse3849" />
        <rect
           clip-path="none"
           transform="rotate(31.01136,-1.5841966e-6,-1.9206241e-6)"
           ry="0"
           y="160.25143"
           x="136.02579"
           height="3.2997301"
           width="19.036907"
           id="rect3851"
           style="fill:#ff0000;stroke:#000000;stroke-width:0.12563717" />
      </g>
    </clipPath>
    <clipPath
       clipPathUnits="userSpaceOnUse"
       id="clipPath4757">
      <rect
         style="fill:#ff0000;stroke:#ffff00"
         id="rect4759"
         width="176.24287"
         height="167.34172"
         x="68.538902"
         y="-2.4494238" />
    </clipPath>
    <clipPath
       clipPathUnits="userSpaceOnUse"
       id="clipPath4784">
      <rect
         style="fill:#ff0000;stroke:#ffff00;stroke-width:0.81036377"
         id="rect4786"
         width="218.79823"
         height="68.302094"
         x="25.185766"
         y="219.67793" />
    </clipPath>
    <clipPath
       clipPathUnits="userSpaceOnUse"
       id="clipPath4790">
      <rect
         style="fill:#ff0000;stroke:#ffff00;stroke-width:0.81817555"
         id="rect4792"
         width="180.58755"
         height="41.668041"
         x="41.512718"
         y="229.86934" />
    </clipPath>
  </defs>
  <sodipodi:namedview
     id="base"
     pagecolor="#ffffff"
     bordercolor="#666666"
     borderopacity="1.0"
     inkscape:pageopacity="0.0"
     inkscape:pageshadow="2"
     inkscape:zoom="3.959798"
     inkscape:cx="58.459791"
     inkscape:cy="15.680829"
     inkscape:document-units="mm"
     inkscape:current-layer="layer3"
     showgrid="false"
     units="px"
     inkscape:window-width="1366"
     inkscape:window-height="704"
     inkscape:window-x="0"
     inkscape:window-y="27"
     inkscape:window-maximized="1" />
  <metadata
     id="metadata5">
    <rdf:RDF>
      <cc:Work
         rdf:about="">
        <dc:format>image/svg+xml</dc:format>
        <dc:type
           rdf:resource="http://purl.org/dc/dcmitype/StillImage" />
        <dc:title></dc:title>
      </cc:Work>
    </rdf:RDF>
  </metadata>
  <g
     inkscape:groupmode="layer"
     id="layer3"
     inkscape:label="Camada 2"
     transform="translate(0,-89.958333)">
    <rect
       style="fill:#9b6b4b;fill-opacity:1;stroke:#9b6b4b;stroke-width:0.0397367;stroke-opacity:1"
       id="rect34-3"
       width="15.835263"
       height="15.835263"
       x="0.019868348"
       y="89.978203"
       ry="0" />
  </g>
  <g
     inkscape:label="Camada 1"
     inkscape:groupmode="layer"
     id="layer1"
     transform="translate(0,-281.12498)">
    <g
       id="g4552"
       transform="matrix(0.26458333,0,0,0.26458333,-140.06182,207.45211)" />
    <g
       id="g4554"
       transform="matrix(0.26458333,0,0,0.26458333,-140.06182,207.45211)" />
    <g
       id="g4556"
       transform="matrix(0.26458333,0,0,0.26458333,-140.06182,207.45211)" />
    <g
       id="g4558"
       transform="matrix(0.26458333,0,0,0.26458333,-140.06182,207.45211)" />
    <g
       id="g4560"
       transform="matrix(0.26458333,0,0,0.26458333,-140.06182,207.45211)" />
    <g
       id="g4562"
       transform="matrix(0.26458333,0,0,0.26458333,-140.06182,207.45211)" />
    <g
       id="g4564"
       transform="matrix(0.26458333,0,0,0.26458333,-140.06182,207.45211)" />
    <g
       id="g4566"
       transform="matrix(0.26458333,0,0,0.26458333,-140.06182,207.45211)" />
    <g
       id="g4568"
       transform="matrix(0.26458333,0,0,0.26458333,-140.06182,207.45211)" />
    <g
       id="g4570"
       transform="matrix(0.26458333,0,0,0.26458333,-140.06182,207.45211)" />
    <g
       id="g4572"
       transform="matrix(0.26458333,0,0,0.26458333,-140.06182,207.45211)" />
    <g
       id="g4574"
       transform="matrix(0.26458333,0,0,0.26458333,-140.06182,207.45211)" />
    <g
       id="g4576"
       transform="matrix(0.26458333,0,0,0.26458333,-140.06182,207.45211)" />
    <g
       id="g4578"
       transform="matrix(0.26458333,0,0,0.26458333,-140.06182,207.45211)" />
    <g
       id="g4580"
       transform="matrix(0.26458333,0,0,0.26458333,-140.06182,207.45211)" />
    <g
       id="g885"
       transform="matrix(0.14999999,0,0,0.15,0,252.44998)">
      <g
         clip-path="url(#clipPath4790)"
         transform="matrix(0.37719634,0,0,0.32649943,3.1997389,204.86454)"
         id="g4486">
        <g
           id="g4428">
          <path
             inkscape:connector-curvature="0"
             d="m 220.328,239 c 0,-4.142 -3.358,-7.5 -7.5,-7.5 h -163 c -4.142,0 -7.5,3.358 -7.5,7.5 v 16 c 0,4.142 3.358,7.5 7.5,7.5 h 163 c 4.142,0 7.5,-3.358 7.5,-7.5 z"
             id="path4422" />
          <path
             inkscape:connector-curvature="0"
             d="m 107.661,44.5 h 15.667 v 95 c 0,4.143 3.357,7.5 7.5,7.5 4.143,0 7.5,-3.357 7.5,-7.5 v -95 h 17.333 c 4.143,0 7.5,-3.357 7.5,-7.5 0,-4.143 -3.357,-7.5 -7.5,-7.5 h -17.333 v -22 c 0,-4.143 -3.357,-7.5 -7.5,-7.5 -4.143,0 -7.5,3.357 -7.5,7.5 v 22 h -15.667 c -4.143,0 -7.5,3.357 -7.5,7.5 0,4.143 3.358,7.5 7.5,7.5 z"
             id="path4424" />
          <path
             inkscape:connector-curvature="0"
             d="m 172.041,65.5 c -5.595,0 -11.259,0.652 -16.917,1.938 -3.414,0.776 -5.795,3.812 -5.795,7.313 V 147.5 c 0,9.925 -8.075,18 -18,18 -9.925,0 -18,-8.075 -18,-18 V 74.752 c 0,-3.502 -2.464,-6.537 -5.878,-7.313 -5.658,-1.286 -11.385,-1.938 -16.981,-1.938 -40.584,0 -73.612,32.972 -73.612,73.5 0,20.856 8.839,57.37 25.442,71.681 1.361,1.174 3.093,1.819 4.891,1.819 h 168.108 c 1.797,0 3.535,-0.646 4.896,-1.819 16.604,-14.311 25.447,-50.824 25.447,-71.681 C 245.643,98.472 212.625,65.5 172.041,65.5 Z"
             id="path4426" />
        </g>
        <g
           id="g4430" />
        <g
           id="g4432" />
        <g
           id="g4434" />
        <g
           id="g4436" />
        <g
           id="g4438" />
        <g
           id="g4440" />
        <g
           id="g4442" />
        <g
           id="g4444" />
        <g
           id="g4446" />
        <g
           id="g4448" />
        <g
           id="g4450" />
        <g
           id="g4452" />
        <g
           id="g4454" />
        <g
           id="g4456" />
        <g
           id="g4458" />
      </g>
      <g
         transform="matrix(0.81651805,0,0,1,96.278393,-3.1022468)"
         id="g4947">
        <path
           style="stroke-width:0.24147274"
           inkscape:connector-curvature="0"
           d="m -10.913008,243.58042 h -84.385293 l 14.219538,11.37562 v 11.17472 c 0,5.44163 -2.771277,10.37767 -7.178155,13.24422 h 70.302524 c -4.406874,-2.86655 -7.178147,-7.80259 -7.178147,-13.24422 v -11.17472 z m 0,0"
           id="path4911" />
        <path
           style="stroke-width:0.24147274"
           inkscape:connector-curvature="0"
           d="m -10.875279,236.34095 v -33.22137 h -21.718396 v 14.47894 h -9.653251 v -14.47894 h -21.718399 v 14.47894 h -9.652307 v -14.47894 h -21.718399 v 33.22137 z m 0,0"
           id="path4913" />
      </g>
    </g>
  </g>
</svg>
