<?xml version="1.0" encoding="UTF-8" standalone="no"?>
<!-- Created with Inkscape (http://www.inkscape.org/) -->

<svg
   xmlns:dc="http://purl.org/dc/elements/1.1/"
   xmlns:cc="http://creativecommons.org/ns#"
   xmlns:rdf="http://www.w3.org/1999/02/22-rdf-syntax-ns#"
   xmlns:svg="http://www.w3.org/2000/svg"
   xmlns="http://www.w3.org/2000/svg"
   xmlns:sodipodi="http://sodipodi.sourceforge.net/DTD/sodipodi-0.dtd"
   xmlns:inkscape="http://www.inkscape.org/namespaces/inkscape"
   width="60"
   height="60"
   viewBox="0 0 15.874999 15.875001"
   version="1.1"
   id="svg8"
   inkscape:version="0.92.4 (5da689c313, 2019-01-14)"
   sodipodi:docname="rei.svg">
  <defs
     id="defs2">
    <clipPath
       clipPathUnits="userSpaceOnUse"
       id="clipPath3817">
      <g
         inkscape:label="Clip"
         id="use3819">
        <ellipse
           clip-path="none"
           style="stroke:#000000;stroke-width:0.24089199"
           ry="18.648291"
           rx="18.581635"
           cy="222.49222"
           cx="52.916668"
           id="ellipse3849" />
        <rect
           clip-path="none"
           transform="rotate(31.01136,-1.5841966e-6,-1.9206241e-6)"
           ry="0"
           y="160.25143"
           x="136.02579"
           height="3.2997301"
           width="19.036907"
           id="rect3851"
           style="fill:#ff0000;stroke:#000000;stroke-width:0.12563717" />
      </g>
    </clipPath>
    <clipPath
       clipPathUnits="userSpaceOnUse"
       id="clipPath4757">
      <rect
         style="fill:#ff0000;stroke:#ffff00"
         id="rect4759"
         width="176.24287"
         height="167.34172"
         x="68.538902"
         y="-2.4494238" />
    </clipPath>
    <clipPath
       clipPathUnits="userSpaceOnUse"
       id="clipPath4784">
      <rect
         style="fill:#ff0000;stroke:#ffff00;stroke-width:0.81036377"
         id="rect4786"
         width="218.79823"
         height="68.302094"
         x="25.185766"
         y="219.67793" />
    </clipPath>
    <clipPath
       clipPathUnits="userSpaceOnUse"
       id="clipPath4790">
      <rect
         style="fill:#ff0000;stroke:#ffff00;stroke-width:0.81817555"
         id="rect4792"
         width="180.58755"
         height="41.668041"
         x="41.512718"
         y="229.86934" />
    </clipPath>
    <clipPath
       clipPathUnits="userSpaceOnUse"
       id="clipPath5309">
      <rect
         style="fill:#ff0000;stroke:#ffff00;stroke-width:0.91658431"
         id="rect5311"
         width="62.374897"
         height="63.349396"
         x="100.24864"
         y="1.0753022" />
    </clipPath>
    <clipPath
       clipPathUnits="userSpaceOnUse"
       id="clipPath5123">
      <rect
         style="fill:#ff0000;stroke:#ffff00;stroke-width:0.87708074"
         id="rect5125"
         width="228.27544"
         height="149.47952"
         x="8.3410997"
         y="48.484455" />
    </clipPath>
  </defs>
  <sodipodi:namedview
     id="base"
     pagecolor="#ffffff"
     bordercolor="#666666"
     borderopacity="1.0"
     inkscape:pageopacity="0.0"
     inkscape:pageshadow="2"
     inkscape:zoom="2.8"
     inkscape:cx="61.925925"
     inkscape:cy="46.141255"
     inkscape:document-units="mm"
     inkscape:current-layer="layer1"
     showgrid="false"
     units="px"
     inkscape:window-width="1366"
     inkscape:window-height="704"
     inkscape:window-x="0"
     inkscape:window-y="27"
     inkscape:window-maximized="1" />
  <metadata
     id="metadata5">
    <rdf:RDF>
      <cc:Work
         rdf:about="">
        <dc:format>image/svg+xml</dc:format>
        <dc:type
           rdf:resource="http://purl.org/dc/dcmitype/StillImage" />
        <dc:title></dc:title>
      </cc:Work>
    </rdf:RDF>
  </metadata>
  <g
     inkscape:groupmode="layer"
     id="layer3"
     inkscape:label="Camada 2"
     transform="translate(0,-89.958333)" />
  <g
     inkscape:label="Camada 1"
     inkscape:groupmode="layer"
     id="layer1"
     transform="translate(0,-281.12498)">
    <g
       id="g4552"
       transform="matrix(0.26458333,0,0,0.26458333,-140.06182,207.45211)" />
    <g
       id="g4554"
       transform="matrix(0.26458333,0,0,0.26458333,-140.06182,207.45211)" />
    <g
       id="g4556"
       transform="matrix(0.26458333,0,0,0.26458333,-140.06182,207.45211)" />
    <g
       id="g4558"
       transform="matrix(0.26458333,0,0,0.26458333,-140.06182,207.45211)" />
    <g
       id="g4560"
       transform="matrix(0.26458333,0,0,0.26458333,-140.06182,207.45211)" />
    <g
       id="g4562"
       transform="matrix(0.26458333,0,0,0.26458333,-140.06182,207.45211)" />
    <g
       id="g4564"
       transform="matrix(0.26458333,0,0,0.26458333,-140.06182,207.45211)" />
    <g
       id="g4566"
       transform="matrix(0.26458333,0,0,0.26458333,-140.06182,207.45211)" />
    <g
       id="g4568"
       transform="matrix(0.26458333,0,0,0.26458333,-140.06182,207.45211)" />
    <g
       id="g4570"
       transform="matrix(0.26458333,0,0,0.26458333,-140.06182,207.45211)" />
    <g
       id="g4572"
       transform="matrix(0.26458333,0,0,0.26458333,-140.06182,207.45211)" />
    <g
       id="g4574"
       transform="matrix(0.26458333,0,0,0.26458333,-140.06182,207.45211)" />
    <g
       id="g4576"
       transform="matrix(0.26458333,0,0,0.26458333,-140.06182,207.45211)" />
    <g
       id="g4578"
       transform="matrix(0.26458333,0,0,0.26458333,-140.06182,207.45211)" />
    <g
       id="g4580"
       transform="matrix(0.26458333,0,0,0.26458333,-140.06182,207.45211)" />
    <g
       id="g896"
       transform="matrix(0.14999999,0,0,0.15000028,0,252.4499)">
      <g
         style="fill:#ffffff"
         clip-path="url(#clipPath4790)"
         transform="matrix(0.43525118,0,0,0.32649943,-4.4522661,204.86454)"
         id="g4486">
        <g
           style="fill:#ffffff"
           id="g4428">
          <path
             style="fill:#ffffff"
             inkscape:connector-curvature="0"
             d="m 220.328,239 c 0,-4.142 -3.358,-7.5 -7.5,-7.5 h -163 c -4.142,0 -7.5,3.358 -7.5,7.5 v 16 c 0,4.142 3.358,7.5 7.5,7.5 h 163 c 4.142,0 7.5,-3.358 7.5,-7.5 z"
             id="path4422" />
          <path
             style="fill:#ffffff"
             inkscape:connector-curvature="0"
             d="m 107.661,44.5 h 15.667 v 95 c 0,4.143 3.357,7.5 7.5,7.5 4.143,0 7.5,-3.357 7.5,-7.5 v -95 h 17.333 c 4.143,0 7.5,-3.357 7.5,-7.5 0,-4.143 -3.357,-7.5 -7.5,-7.5 h -17.333 v -22 c 0,-4.143 -3.357,-7.5 -7.5,-7.5 -4.143,0 -7.5,3.357 -7.5,7.5 v 22 h -15.667 c -4.143,0 -7.5,3.357 -7.5,7.5 0,4.143 3.358,7.5 7.5,7.5 z"
             id="path4424" />
          <path
             style="fill:#ffffff"
             inkscape:connector-curvature="0"
             d="m 172.041,65.5 c -5.595,0 -11.259,0.652 -16.917,1.938 -3.414,0.776 -5.795,3.812 -5.795,7.313 V 147.5 c 0,9.925 -8.075,18 -18,18 -9.925,0 -18,-8.075 -18,-18 V 74.752 c 0,-3.502 -2.464,-6.537 -5.878,-7.313 -5.658,-1.286 -11.385,-1.938 -16.981,-1.938 -40.584,0 -73.612,32.972 -73.612,73.5 0,20.856 8.839,57.37 25.442,71.681 1.361,1.174 3.093,1.819 4.891,1.819 h 168.108 c 1.797,0 3.535,-0.646 4.896,-1.819 16.604,-14.311 25.447,-50.824 25.447,-71.681 C 245.643,98.472 212.625,65.5 172.041,65.5 Z"
             id="path4426" />
        </g>
        <g
           style="fill:#ffffff"
           id="g4430" />
        <g
           style="fill:#ffffff"
           id="g4432" />
        <g
           style="fill:#ffffff"
           id="g4434" />
        <g
           style="fill:#ffffff"
           id="g4436" />
        <g
           style="fill:#ffffff"
           id="g4438" />
        <g
           style="fill:#ffffff"
           id="g4440" />
        <g
           style="fill:#ffffff"
           id="g4442" />
        <g
           style="fill:#ffffff"
           id="g4444" />
        <g
           style="fill:#ffffff"
           id="g4446" />
        <g
           style="fill:#ffffff"
           id="g4448" />
        <g
           style="fill:#ffffff"
           id="g4450" />
        <g
           style="fill:#ffffff"
           id="g4452" />
        <g
           style="fill:#ffffff"
           id="g4454" />
        <g
           style="fill:#ffffff"
           id="g4456" />
        <g
           style="fill:#ffffff"
           id="g4458" />
      </g>
      <path
         style="fill:#ffffff"
         clip-path="url(#clipPath5123)"
         id="path5078"
         d="m 211.416,238.5 c 0,4.142 -3.358,7.5 -7.5,7.5 h -163 c -4.142,0 -7.5,-3.358 -7.5,-7.5 v -16 c 0,-4.142 3.358,-7.5 7.5,-7.5 h 163 c 4.142,0 7.5,3.358 7.5,7.5 z m 25.477,-112.321 c 0,-33.38 -27.156,-60.536 -60.536,-60.536 -4.074,0 -8.05,0.417 -11.899,1.193 6.153,13.469 9.756,30.194 9.756,48.461 0,17.046 -3.145,32.703 -8.566,45.703 h -16.603 c 6.262,-12 10.169,-28.236 10.169,-45.703 0,-36.183 -16.731,-66.773 -36.536,-66.773 -19.804,0 -36.535,30.603 -36.535,66.785 0,17.467 3.907,33.691 10.169,45.691 h -16.6 c -5.421,-13 -8.569,-28.656 -8.569,-45.703 0,-18.318 3.623,-35.064 9.807,-48.553 -3.665,-0.7 -7.442,-1.089 -11.307,-1.089 -33.38,0 -60.536,27.15 -60.536,60.53 0,18.628 8.511,35.309 21.789,46.422 -0.332,1.267 -0.479,2.586 -0.479,3.956 v 4.661 c 0,8.633 6.928,15.776 15.561,15.776 H 199.38 c 8.633,0 15.037,-7.144 15.037,-15.776 v -4.661 c 0,-1.211 0.158,-2.385 -0.104,-3.517 13.583,-11.111 22.58,-27.992 22.58,-46.867 z M 122.999,0 c -8.685,0 -15.75,7.065 -15.75,15.75 0,8.685 7.065,15.75 15.75,15.75 8.685,0 15.75,-7.065 15.75,-15.75 C 138.749,7.065 131.684,0 122.999,0 Z"
         inkscape:connector-curvature="0"
         transform="matrix(0.40579928,0,0,0.40579928,3.0594496,199.12825)" />
      <g
         style="fill:#ffffff"
         clip-path="url(#clipPath5309)"
         id="g5268"
         transform="matrix(0.30407708,0,0,0.30407708,12.949964,200.18084)">
        <path
           style="fill:#ffffff"
           id="path5262"
           d="m 220.328,239 c 0,-4.142 -3.358,-7.5 -7.5,-7.5 h -163 c -4.142,0 -7.5,3.358 -7.5,7.5 v 16 c 0,4.142 3.358,7.5 7.5,7.5 h 163 c 4.142,0 7.5,-3.358 7.5,-7.5 z"
           inkscape:connector-curvature="0" />
        <path
           style="fill:#ffffff"
           id="path5264"
           d="m 107.661,44.5 h 15.667 v 95 c 0,4.143 3.357,7.5 7.5,7.5 4.143,0 7.5,-3.357 7.5,-7.5 v -95 h 17.333 c 4.143,0 7.5,-3.357 7.5,-7.5 0,-4.143 -3.357,-7.5 -7.5,-7.5 h -17.333 v -22 c 0,-4.143 -3.357,-7.5 -7.5,-7.5 -4.143,0 -7.5,3.357 -7.5,7.5 v 22 h -15.667 c -4.143,0 -7.5,3.357 -7.5,7.5 0,4.143 3.358,7.5 7.5,7.5 z"
           inkscape:connector-curvature="0" />
        <path
           style="fill:#ffffff"
           id="path5266"
           d="m 172.041,65.5 c -5.595,0 -11.259,0.652 -16.917,1.938 -3.414,0.776 -5.795,3.812 -5.795,7.313 V 147.5 c 0,9.925 -8.075,18 -18,18 -9.925,0 -18,-8.075 -18,-18 V 74.752 c 0,-3.502 -2.464,-6.537 -5.878,-7.313 -5.658,-1.286 -11.385,-1.938 -16.981,-1.938 -40.584,0 -73.612,32.972 -73.612,73.5 0,20.856 8.839,57.37 25.442,71.681 1.361,1.174 3.093,1.819 4.891,1.819 h 168.108 c 1.797,0 3.535,-0.646 4.896,-1.819 16.604,-14.311 25.447,-50.824 25.447,-71.681 C 245.643,98.472 212.625,65.5 172.041,65.5 Z"
           inkscape:connector-curvature="0" />
      </g>
    </g>
  </g>
</svg>
